<svg xmlns="http://www.w3.org/2000/svg" viewBox="0 0 1080 1080" overflow="hidden" preserveAspectRatio="xMidYMid meet" id="eaf-1121-0"><defs><clipPath id="eaf-1121-1"><rect x="0" y="0" width="1080" height="1080"></rect></clipPath><linearGradient gradientUnits="userSpaceOnUse" x1="695.2918695" y1="262.56077796" x2="676.3971223" y2="-749.21420445" id="eaf-1121-2"><stop stop-color="#00173d" offset="0"></stop><stop stop-color="#00173d00" offset="1"></stop></linearGradient><clipPath id="eaf-1121-3"><path d="M 186.83665466 153.67263794 C 308.8081665 0 535.9262085 -33.3212471 724.58068848 43.79077148 C 913.23510742 120.90279388 1090.73400879 263.97546387 1032.42602539 727.25189209 C 974.11804199 1190.52832031 410.53598022 1080 140.95321655 913.3190918 C -128.62953186 746.63824463 64.86512756 307.34527588 186.83665466 153.67263794 Z" clip-rule="evenodd"></path></clipPath><clipPath id="eaf-1121-4"><path d="M 401.20950317 847.6317749 Q 462.35049438 841.46148682 473.76977539 858.76727295 Q 474.60058594 860.02636719 475.31045532 861.20483398 Q 491.34411621 853.96417236 500.35125732 858.76727295 Q 511.12753296 864.51385498 510.04992676 878.16461182 Q 491.90985107 883.01098633 473.76977539 878.16455078 Q 398.52774048 882.56689453 390.59020996 878.16461182 C 382.65270996 873.7623291 386.27581787 868.79486084 386.12271118 867.16479492 C 385.17510986 857.07788086 383.58712769 850.37023926 401.20950317 847.6317749 Z" clip-rule="evenodd"></path></clipPath><clipPath id="eaf-1121-5"><path d="M 401.20950317 847.6317749 Q 462.35049438 841.46148682 473.76977539 858.76727295 Q 474.60058594 860.02636719 475.31045532 861.20483398 Q 491.34411621 853.96417236 500.35125732 858.76727295 Q 511.12753296 864.51385498 510.04992676 878.16461182 Q 491.90985107 883.01098633 473.76977539 878.16455078 Q 398.52774048 882.56689453 390.59020996 878.16461182 C 382.65270996 873.7623291 386.27581787 868.79486084 386.12271118 867.16479492 C 385.17510986 857.07788086 383.58712769 850.37023926 401.20950317 847.6317749 Z" clip-rule="evenodd"></path></clipPath><clipPath id="eaf-1121-6"><path d="M 100 0 L 140 0 C 162.07139587 0 180 17.92860794 180 40 L 180 260 C 180 282.07138062 162.07139587 300 140 300 L 80 300 C 35.85721588 300 0 264.14279175 0 220 L 0 100 C 0 44.82152176 44.82152176 0 100 0 Z" clip-rule="evenodd" transform="translate(789.50119075 210.01017724)"></path></clipPath><clipPath id="eaf-1121-7"><path d="M 0 0 Q 148.6153121 33.25991863 180 10.62562757 Q 199.51898187 76.68269373 185.76252947 128.30139209 Q 166.35895169 115.8785656 157.80651459 103.51647063 Q 157.80870412 118.5591393 154.29190373 128.30139209 Q 139.90107874 125.37527348 131.09190373 103.51647063 Q 132.00808655 119.29082519 131.09190373 128.30139209 Q 97.29637046 117.64575681 90 87.25065576 Q 73.15263007 79.28626721 60.28334897 73.20247162 C 22.27990723 46.75318063 -1.04955938 41.89562083 0 24.12632644 L 0 0 Z" clip-rule="evenodd" transform="translate(789.50119075 445.09947484)"><animate keyTimes="0;0.25;0.5;0.75;1" calcMode="linear" dur="1000ms" repeatCount="indefinite" attributeName="d" values="M 0 0 Q 148.6153121 33.25991863 180 10.62562757 Q 199.51898187 76.68269373 185.76252947 128.30139209 Q 166.35895169 115.8785656 157.80651459 103.51647063 Q 157.80870412 118.5591393 154.29190373 128.30139209 Q 139.90107874 125.37527348 131.09190373 103.51647063 Q 132.00808655 119.29082519 131.09190373 128.30139209 Q 97.29637046 117.64575681 90 87.25065576 Q 73.15263007 79.28626721 60.28334897 73.20247162 C 22.27990723 46.75318063 -1.04955938 41.89562083 0 24.12632644 L 0 0 Z;M 0 0 Q 148.6153121 33.25991863 180 10.62562757 Q 199.51898187 76.68269373 200.04975067 127.97021976 Q 180.64617289 115.54739328 172.0937358 103.1852983 Q 172.09592532 118.22796697 168.57912493 127.97021976 Q 139.90107874 125.37527348 131.09190373 103.51647063 Q 120.98654198 112.33900137 120.07035917 121.34956826 Q 97.29637046 117.64575681 90 87.25065576 Q 79.56611139 78.17146024 60.28334897 73.20247162 C 22.27990723 46.75318063 -1.04955938 41.89562083 0 24.12632644 L 0 0 Z;M 0 0 Q 148.6153121 33.25991863 180 10.62562757 Q 199.51898187 76.68269373 182.55129015 131.53982212 Q 163.14771237 119.11699564 154.59527527 106.75490067 Q 154.5974648 121.79756934 151.08066441 131.53982212 Q 122.40261822 128.94487584 113.59344321 107.08607299 Q 105.51391842 107.83520132 104.59773561 116.84576822 Q 86.38518614 122.97520107 79.08881568 92.58010001 Q 79.56611139 78.17146024 60.28334897 73.20247162 C 22.27990723 46.75318063 -1.04955938 41.89562083 0 24.12632644 L 0 0 Z;M 0 0 Q 148.6153121 33.25991863 180 10.62562757 Q 199.51898187 76.68269373 200.04975067 127.97021976 Q 180.64617289 115.54739328 172.0937358 103.1852983 Q 172.09592532 118.22796697 168.57912493 127.97021976 Q 139.90107874 125.37527348 131.09190373 103.51647063 Q 120.98654198 112.33900137 120.07035917 121.34956826 Q 97.29637046 117.64575681 90 87.25065576 Q 79.56611139 78.17146024 60.28334897 73.20247162 C 22.27990723 46.75318063 -1.04955938 41.89562083 0 24.12632644 L 0 0 Z;M 0 0 Q 148.6153121 33.25991863 180 10.62562757 Q 199.51898187 76.68269373 185.76252947 128.30139209 Q 166.35895169 115.8785656 157.80651459 103.51647063 Q 157.80870412 118.5591393 154.29190373 128.30139209 Q 139.90107874 125.37527348 131.09190373 103.51647063 Q 132.00808655 119.29082519 131.09190373 128.30139209 Q 97.29637046 117.64575681 90 87.25065576 Q 73.15263007 79.28626721 60.28334897 73.20247162 C 22.27990723 46.75318063 -1.04955938 41.89562083 0 24.12632644 L 0 0 Z"></animate></path></clipPath><clipPath id="eaf-1121-8"><path d="M 0 0 L 67.6791687 -34.18844604 L 23.37373352 28.25779724 Q -5.92078447 23.85835075 0 0 Z" clip-rule="evenodd" transform="translate(600.43232458 218.20502317)"></path></clipPath><clipPath id="eaf-1121-9"><path d="M 35.49660492 28.54328728 Q 69.58634949 62.42202759 61.10620117 75.7073288 Q 63.84534454 104.47782898 72.40854645 108.63744354 Q 77.66083527 111.18876648 83.50519562 113.00658417 Q 88.54666901 113.58797455 99.81336975 125.48600769 C 105.89089966 130.33430481 100.22141266 143.29083252 114.49780273 144.80958557 Q 128.77418518 146.32835388 135.7146759 138.26901245 C 152.12454224 138.26901245 192.12069702 132.62254333 180.70094299 105.08197021 C 171.9866333 84.06600189 160.95994568 55.19189453 154.51799011 51.37930298 Q 148.9058075 48.05781174 83.50519562 28.54328728 Q 70.43775177 23.40931702 65.16139221 15.21955299 C 47.97714615 4.335711 32.0615387 15.46008873 35.49660492 28.54328728 Z" clip-rule="evenodd" transform="matrix(0.71106284 -0.46176961 0.60008186 0.92404503 717.4512423 556.49562431)"></path></clipPath></defs><g clip-path="url('#eaf-1121-1')" style="isolation: isolate;"><g><g><g clip-path="url('#eaf-1121-3')"><path fill="#002b70" fill-rule="evenodd" d="M 186.83665295 153.67263348 C 308.8081795 0 535.92621061 -33.32124798 724.58067181 43.79077129 C 913.23513302 120.90279057 1090.73402252 263.9754676 1032.42602539 727.25188536 C 974.11802826 1190.52830311 410.53597933 1080 140.95321997 913.31911233 C -128.62953939 746.63822466 64.8651264 307.34526697 186.83665295 153.67263348 Z"></path><g><path fill="url('#eaf-1121-2')" fill-rule="evenodd" d="M 0 0 Q 41.13452188 -400.84278768 104.14910859 -400.84278768 C 167.1636953 -400.84278768 102.35310094 -336.30641134 121.65316045 -311.57212318 C 140.95321997 -286.83783502 86.64505673 -245.20689518 104.14910859 -226.75255618 C 121.65316045 -208.29821718 102.35310094 -173.29011345 121.65316045 -122.52836305 C 140.95321997 -71.76661264 81.39384117 24.23861543 121.65316045 24.23861543 Q 161.91247974 24.23861543 140.95321997 161.03727715 Q 184.66774716 -311.57212318 221.42625608 -311.57212318 C 258.18476499 -311.57212318 196.92058347 -495.36466775 256.43435981 -533.87358185 C 315.94813614 -572.38249595 293.19286872 -379.83792545 333.45218801 -357.08265802 C 373.71150729 -334.3273906 357.95786062 -257.45973149 385.9643436 -226.75255618 C 413.97082658 -196.04538088 307.19611021 -115.5267423 363.20907618 -71.76661264 C 419.22204214 -28.00648298 331.70178282 32.84711162 413.97082658 64.36349069 C 496.23987034 95.87986975 464.71410639 -171.53970827 494.48946515 -180.2917342 C 524.26482391 -189.04376013 464.76951817 -330.82658023 524.26482391 -357.08265802 C 583.76012966 -383.33873582 639.77309562 -419.50129099 645.02431118 -336.07779579 C 650.27552674 -252.65430058 610.01620746 -180.2917342 627.52025932 -180.2917342 C 645.02431118 -180.2917342 695.2918695 -154.86938941 695.2918695 -122.52836305 C 695.2918695 -90.18733668 666.00306718 -35.00810373 695.2918695 -17.50405186 C 724.58067181 0 677.87266905 64.36349069 724.58068848 64.36349069 C 771.28870791 64.36349069 724.26299117 113.77633712 771.28870791 117.27714749 C 818.31442464 120.77795786 776.30470016 -84.01944895 818.31442464 -122.52836305 C 860.32414911 -161.03727715 806.06158833 -237.59787425 846.32090762 -286.83783502 C 886.5802269 -336.07779579 856.82333874 -358.83306321 897.08265802 -400.84278768 C 937.34197731 -442.85251216 865.57536467 -495.36466775 897.08265802 -533.87358185 C 928.58995138 -572.38249595 948.66298016 -596.88816856 968.84927066 -498.86547812 C 989.03556117 -400.84278768 917.14671663 -336.30641134 968.84927066 -311.57212318 C 1020.5518247 -286.83783502 1007.41308594 -357.08265802 1043.70654297 -357.08265802 C 1080 -357.08265802 1080 -419.50129099 1080 -336.07779579 C 1080 -252.65430058 1007.41308594 -173.29011345 1043.70654297 -122.52836305 C 1080 -71.76661264 1080 -15.88625984 1080 24.23861543 C 1080 64.36349069 1080 91.02106969 1080 117.27714749 Q 1080 143.53322528 1152.64181524 220.55105348 Q 1080 262.56077796 1080 262.56077796 C 1080 262.56077796 140.95321997 262.56077796 140.95321997 262.56077796 C 140.95321997 262.56077796 -181.16693679 194.29497569 -182.91734198 190.79416532 Q -184.66774716 187.29335494 0 0 Z" transform="translate(0 817.43922204)"></path><path fill="#00173d" fill-rule="evenodd" d="M 0 0 Q 41.13452188 -400.84278768 104.14910859 -400.84278768 C 167.1636953 -400.84278768 102.35310094 -336.30641134 121.65316045 -311.57212318 C 140.95321997 -286.83783502 86.64505673 -245.20689518 104.14910859 -226.75255618 C 121.65316045 -208.29821718 102.35310094 -173.29011345 121.65316045 -122.52836305 C 140.95321997 -71.76661264 81.39384117 24.23861543 121.65316045 24.23861543 Q 161.91247974 24.23861543 140.95321997 161.03727715 Q 184.66774716 -311.57212318 221.42625608 -311.57212318 C 258.18476499 -311.57212318 196.92058347 -495.36466775 256.43435981 -533.87358185 C 315.94813614 -572.38249595 293.19286872 -379.83792545 333.45218801 -357.08265802 C 373.71150729 -334.3273906 357.95786062 -257.45973149 385.9643436 -226.75255618 C 413.97082658 -196.04538088 307.19611021 -115.5267423 363.20907618 -71.76661264 C 419.22204214 -28.00648298 331.70178282 32.84711162 413.97082658 64.36349069 C 496.23987034 95.87986975 464.71410639 -171.53970827 494.48946515 -180.2917342 C 524.26482391 -189.04376013 464.76951817 -330.82658023 524.26482391 -357.08265802 C 583.76012966 -383.33873582 639.77309562 -419.50129099 645.02431118 -336.07779579 C 650.27552674 -252.65430058 610.01620746 -180.2917342 627.52025932 -180.2917342 C 645.02431118 -180.2917342 695.2918695 -154.86938941 695.2918695 -122.52836305 C 695.2918695 -90.18733668 666.00306718 -35.00810373 695.2918695 -17.50405186 C 724.58067181 0 677.87266905 64.36349069 724.58068848 64.36349069 C 771.28870791 64.36349069 724.26299117 113.77633712 771.28870791 117.27714749 C 818.31442464 120.77795786 776.30470016 -84.01944895 818.31442464 -122.52836305 C 860.32414911 -161.03727715 806.06158833 -237.59787425 846.32090762 -286.83783502 C 886.5802269 -336.07779579 856.82333874 -358.83306321 897.08265802 -400.84278768 C 937.34197731 -442.85251216 865.57536467 -495.36466775 897.08265802 -533.87358185 C 928.58995138 -572.38249595 948.66298016 -596.88816856 968.84927066 -498.86547812 C 989.03556117 -400.84278768 917.14671663 -336.30641134 968.84927066 -311.57212318 C 1020.5518247 -286.83783502 1007.41308594 -357.08265802 1043.70654297 -357.08265802 C 1080 -357.08265802 1080 -419.50129099 1080 -336.07779579 C 1080 -252.65430058 1007.41308594 -173.29011345 1043.70654297 -122.52836305 C 1080 -71.76661264 1080 -15.88625984 1080 24.23861543 C 1080 64.36349069 1080 91.02106969 1080 117.27714749 Q 1080 143.53322528 1152.64181524 220.55105348 Q 1080 262.56077796 1080 262.56077796 C 1080 262.56077796 140.95321997 262.56077796 140.95321997 262.56077796 C 140.95321997 262.56077796 -181.16693679 194.29497569 -182.91734198 190.79416532 Q -184.66774716 187.29335494 0 0 Z" transform="translate(1203.48560156 817.43922204)"></path></g></g><g transform="matrix(1.36833877 0 0 1.36833877 -206.22418933 -196.00513982)"><g transform="translate(-339.50119075 22.83599587)"><path fill="none" stroke="#00b2d6" stroke-width="28" stroke-linecap="round" stroke-linejoin="round" d="M 0 0 Q 0 157.15382689 126.27573395 181.93874835" transform="matrix(0.93358043 -0.35836795 0.35836795 0.93358043 856.91923439 356.87016354)"><animate keyTimes="0;0.25;0.5;0.75;1" calcMode="linear" dur="1000ms" repeatCount="indefinite" attributeName="d" values="M 0 0 Q 0 157.15382689 126.27573395 181.93874835;M 0 0 Q -8.76194096 102.09679197 -17.52388118 230.67648862;M 0 0 Q -108.21248627 46.11132759 -108.21248627 181.93874835;M 0 0 Q -8.76194096 102.09679197 -17.52388118 230.67648862;M 0 0 Q 0 157.15382689 126.27573395 181.93874835"></animate><animateTransform attributeName="transform" type="translate" from="0 0" to="0 0" calcMode="discrete" dur="1000ms" repeatCount="indefinite"></animateTransform><animateMotion keyTimes="0;0.25;0.5;0.75;1" calcMode="linear" dur="1000ms" repeatCount="indefinite" attributeName="transform" keyPoints="0;0.25;0.5;0.75;1" path="M 848.73924979 360.01017724 L 848.73924979 340.01017724 L 848.73924979 360.01017724 L 848.73924979 340.01017724 L 848.73924979 360.01017724" additive="sum"></animateMotion><animateTransform keyTimes="0;0.25;0.75;1" calcMode="linear" dur="1000ms" repeatCount="indefinite" attributeName="transform" values="-21;0;0;-21" type="rotate" additive="sum"></animateTransform><animateTransform attributeName="transform" type="translate" from="8.76194096 0" to="8.76194096 0" calcMode="discrete" dur="1000ms" repeatCount="indefinite" additive="sum"></animateTransform></path><path fill="none" stroke="#00b2d6" stroke-width="28" stroke-linecap="round" stroke-linejoin="round" d="M 30.6449639 63.02622151 C 56.31691439 14.64124403 -0.24705595 18.98880032 -0.24705595 18.98880032 C -0.24705595 18.98880032 -34.78509541 50.20641393 30.6449639 32.03105259" transform="translate(1040.25579834 462.48266843)"><animate keyTimes="0;0.133;0.25;0.383;0.5;0.633;0.75;0.867;1" calcMode="linear" dur="1000ms" repeatCount="indefinite" attributeName="d" values="M 30.6449639 63.02622151 C 56.31691439 14.64124403 -0.24705595 18.98880032 -0.24705595 18.98880032 C -0.24705595 18.98880032 -34.78509541 50.20641393 30.6449639 32.03105259;M 54.22159286 46.96899764 C 24.52459988 20.11686986 -0.24705595 18.98880032 -0.24705595 18.98880032 C -0.24705595 18.98880032 -34.78509541 50.20641393 30.6449639 32.03105259;M 54.22159286 46.96899764 C 18.41904225 34.92439705 -0.24705595 18.98880032 -0.24705595 18.98880032 C -0.24705595 18.98880032 -30.29650333 69.38328904 35.13355599 51.2079277;M 54.22159286 46.96899764 C 33.9822721 22.65037549 6.72253731 13.49219461 -0.24705595 18.98880032 C -7.21664922 24.48540602 -30.89560039 56.59307869 34.53445892 38.41771736;M 51.99599487 41.17111934 C 9.84923025 15.11319915 6.72253731 13.49219461 -0.24705595 18.98880032 C -7.21664922 24.48540602 -30.89560039 56.59307869 34.53445892 38.41771736;M 54.22159286 46.96899764 C 25.47633653 23.2032437 6.72253731 13.49219461 -0.24705595 18.98880032 C -7.21664922 24.48540602 -13.13085555 60.34028611 34.82098088 40.07168309;M 54.22159286 46.96899764 C 22.64949414 39.14414007 6.72253731 13.49219461 -0.24705595 18.98880032 C -7.21664922 24.48540602 -13.4173775 58.68632038 34.53445892 38.41771736;M 54.22159286 46.96899764 C 24.52459988 20.11686986 -0.24705595 18.98880032 -0.24705595 18.98880032 C -0.24705595 18.98880032 -34.78509541 50.20641393 30.6449639 32.03105259;M 30.6449639 67.37377512 C 56.31691439 18.98879764 -0.24705595 18.98880032 -0.24705595 18.98880032 C -0.24705595 18.98880032 -34.78509541 50.20641393 30.6449639 32.03105259"></animate><animateTransform attributeName="transform" type="translate" from="0 0" to="0 0" calcMode="discrete" dur="1000ms" repeatCount="indefinite"></animateTransform><animateMotion keyTimes="0;0.25;0.5;0.75;1" calcMode="linear" dur="1000ms" repeatCount="indefinite" attributeName="transform" keyPoints="0;0.34689308;0.49999649;0.6531035;1" path="M 1030.899834 481.47145685 Q 944.87522865 546.79838661 839.97730956 565.09363043 L 751.09335535 538.10653674 Q 794.72078196 551.93025411 839.97730956 565.09363043 Q 946.78478286 545.97546848 1030.899834 481.47145685" additive="sum"></animateMotion><animateTransform keyTimes="0;0.25;0.5;0.75;1" calcMode="linear" dur="1000ms" repeatCount="indefinite" attributeName="transform" values="0;90;111;90;0" type="rotate" additive="sum"></animateTransform><animateTransform attributeName="transform" type="translate" from="9.35601807 -18.98879764" to="9.35601807 -18.98879764" calcMode="discrete" dur="1000ms" repeatCount="indefinite" additive="sum"></animateTransform></path></g><g><path fill="none" stroke="#00b2d6" stroke-width="28" stroke-linecap="round" d="M 0 0 Q 0 189.78543091 -166.68544006 379.57086182" transform="translate(522.47611882 484.94296507)"><animate keyTimes="0;0.25;0.5;0.75;1" calcMode="linear" dur="1000ms" repeatCount="indefinite" attributeName="d" values="M 0 0 Q 0 189.78543091 -166.68544006 379.57086182;M 0 0 Q 158.57451514 77.89303079 98.02269044 257.1593931;M 0 0 Q 79.28725433 189.78543091 158.57450867 379.57086826;M 0 0 Q 10.50822926 189.78543091 -63.67663002 379.57086826;M 0 0 Q 0 189.78543091 -166.68544006 379.57086826"></animate></path><g transform="matrix(1 0 0 1 -38.00063206 1.21497227)" clip-path="url('#eaf-1121-4')"><path fill="#00b2d6" fill-rule="evenodd" d="M 401.20949304 847.6317854 Q 462.35050714 841.46149112 473.76977289 858.76727391 Q 474.60059106 860.0263672 475.31046808 861.20484639 Q 491.34412133 853.9641738 500.35124719 858.76728345 Q 511.12752282 864.51386548 510.04991662 878.16462232 Q 491.9098449 883.01096057 473.76977289 878.16457845 Q 398.52775251 882.56692438 390.59022513 878.16462232 C 375.38660188 872.88317956 377.09939257 849.58525103 401.20949304 847.6317854 Z"></path><path fill="#1af2eb" fill-rule="evenodd" d="M 0 0 Q -16.72314323 5.31200674 -7.23627947 9.17794276 Q 2.2505843 13.04387878 12.04722529 13.04384852 Q 9.89706237 4.83622623 0 0 Z" transform="translate(498.10066289 854.1209464)"></path><animateTransform attributeName="transform" type="translate" from="0 0" to="0 0" calcMode="discrete" dur="1000ms" repeatCount="indefinite"></animateTransform><animateMotion keyTimes="0;0.25;0.5;0.75;1" calcMode="linear" dur="1000ms" repeatCount="indefinite" attributeName="transform" keyPoints="0;0.38973945;0.56964089;0.86617057;1" path="M 355.79067875 864.51382689 L 621.81681154 742.10235173 L 679.149736 864.51382045 L 456.34613878 864.51382045 L 355.79067875 864.51382689" additive="sum"></animateMotion><animateTransform keyTimes="0;0.133;0.233;0.25;0.383;0.5;1" calcMode="linear" dur="1000ms" repeatCount="indefinite" attributeName="transform" values="0;19;2.76068376;0;-14;0;0" type="rotate" additive="sum"></animateTransform><animateTransform attributeName="transform" type="scale" from="1 1" to="1 1" calcMode="discrete" dur="1000ms" repeatCount="indefinite" additive="sum"></animateTransform><animateTransform attributeName="transform" type="translate" from="-393.79131199 -863.29888271" to="-393.79131199 -863.29888271" calcMode="discrete" dur="1000ms" repeatCount="indefinite" additive="sum"></animateTransform></g></g><g><path fill="none" stroke="#1af2eb" stroke-width="28" stroke-linecap="round" d="M 0 0 Q 79.28725433 189.78543091 158.57450867 379.57086826" transform="translate(522.47611882 484.94296507)"><animate keyTimes="0;0.25;0.5;0.75;1" calcMode="linear" dur="1000ms" repeatCount="indefinite" attributeName="d" values="M 0 0 Q 79.28725433 189.78543091 158.57450867 379.57086826;M 0 0 Q 10.50822926 189.78543091 -63.67663002 379.57086826;M 0 0 Q 0 189.78543091 -166.68544006 379.57086182;M 0 0 Q 158.57451514 77.89303079 98.02269044 257.1593931;M 0 0 Q 79.28725433 189.78543091 158.57450867 379.57086826"></animate></path><g transform="translate(285.35840725 1.21491123)" clip-path="url('#eaf-1121-5')"><path fill="#1af2eb" fill-rule="evenodd" d="M 401.20949304 847.6317854 Q 462.35050714 841.46149112 473.76977289 858.76727391 Q 474.60059106 860.0263672 475.31046808 861.20484639 Q 491.34412133 853.9641738 500.35124719 858.76728345 Q 511.12752282 864.51386548 510.04991662 878.16462232 Q 491.9098449 883.01096057 473.76977289 878.16457845 Q 398.52775251 882.56692438 390.59022513 878.16462232 C 375.38660188 872.88317956 377.09939257 849.58525103 401.20949304 847.6317854 Z"></path><path fill="#00b2d6" fill-rule="evenodd" d="M 0 0 Q -16.72314323 5.31200674 -7.23627947 9.17794276 Q 2.2505843 13.04387878 12.04722529 13.04384852 Q 9.89706237 4.83622623 0 0 Z" transform="translate(498.10066289 854.1209464)"></path><animateTransform attributeName="transform" type="translate" from="0 0" to="0 0" calcMode="discrete" dur="1000ms" repeatCount="indefinite"></animateTransform><animateMotion keyTimes="0;0.25;0.5;0.75;1" calcMode="linear" dur="1000ms" repeatCount="indefinite" attributeName="transform" keyPoints="0;0.29652968;0.43035911;0.82009856;1" path="M 679.149736 864.51382045 L 456.34613878 864.51382045 L 355.79067875 864.51382689 L 621.81681154 742.10235173 L 679.149736 864.51382045" additive="sum"></animateMotion><animateTransform keyTimes="0;0.5;0.633;0.75;0.883;1" calcMode="linear" dur="1000ms" repeatCount="indefinite" attributeName="transform" values="0;0;19;0;-14;0" type="rotate" additive="sum"></animateTransform><animateTransform attributeName="transform" type="translate" from="-393.79131199 -863.29888271" to="-393.79131199 -863.29888271" calcMode="discrete" dur="1000ms" repeatCount="indefinite" additive="sum"></animateTransform></g></g><g transform="translate(-338.81848257 18.31580886)"><g clip-path="url('#eaf-1121-6')"><path fill="#1af2eb" fill-rule="evenodd" d="M 100 0 L 140 0 C 162.07139111 0 180 17.92860889 180 40 L 180 260 C 180 282.07139111 162.07139111 300 140 300 L 80 300 C 35.85721778 300 0 264.14278222 0 220 L 0 100 C 0 44.82152222 44.82152222 0 100 0 Z" transform="translate(789.50119075 210.01017724)"></path><path fill="#00b2d6" fill-rule="evenodd" d="M 79 24.90584797 Q -31.80647602 18.24806115 -71.73464203 103.4765996 Q -46.6976957 118.12985275 -53.24386795 152.68754336 Q -73.02176967 196.11014585 -28.20658992 202.15734431 Q -9.99997004 267.27956373 91.44961492 323.17396385 L -159.25354659 363.03287845 L -136.11129032 11.57112813 L 79 24.90584797 Z" transform="translate(889.50119075 186.07621926)"></path><g transform="translate(338.81848201 -12.95582375)"><ellipse fill="#1af2eb" rx="6.8748589" ry="6.8748589" transform="translate(479.77800542 305.71323588)"></ellipse><ellipse fill="#1af2eb" rx="14.18853859" ry="14.18853859" transform="translate(500.25630853 274.41068683)"></ellipse><ellipse fill="#1af2eb" rx="7.31367968" ry="7.31367968" transform="translate(485.19012839 338.62479445)"></ellipse><ellipse fill="#1af2eb" rx="3.51056625" ry="3.51056625" transform="translate(488.40814745 321.65705759)"></ellipse><ellipse fill="#1af2eb" rx="6.58231172" ry="6.58231172" transform="translate(524.83027227 249.54417591)"></ellipse><ellipse fill="#1af2eb" rx="3.80311344" ry="3.80311344" transform="translate(505.08333713 250.27554388)"></ellipse><ellipse fill="#00b2d6" rx="8.55818064" ry="8.55818064" transform="translate(504.11492007 307.33718477)"></ellipse><ellipse fill="#00b2d6" rx="2.48965255" ry="2.48965255" transform="translate(489.02140148 293.17728589)"></ellipse><ellipse fill="#00b2d6" rx="2.64525583" ry="2.64525583" transform="translate(507.30305628 261.11537529)"></ellipse><ellipse fill="#00b2d6" rx="4.20128868" ry="4.20128868" transform="translate(498.8244084 353.08455038)"></ellipse></g></g><g transform="translate(338.81848201 -8.95582375)"><g transform="translate(0 3.85383013)"><path fill="#ff449e" fill-rule="evenodd" d="M 0 0 C -8.12798666 0 -75.79467563 -1.85062083 -75.79467563 15.74105875 Q -75.79467563 33.33273833 0 31.94538587 Q 18.62210035 26.1748627 0 15.93532342 C 13.28051027 10.36454766 8.12798666 0 0 0 Z" transform="matrix(0.84098946 0 0 1 636.44523821 342.7993744)"></path><path fill="none" stroke="#8c0069" stroke-width="2" stroke-linecap="round" stroke-linejoin="round" d="M 0 0 Q -21.25284885 -0.11629805 -46.48699575 -0.25438222" transform="translate(636.69740315 358.79481538)"><animate keyTimes="0;0.25;0.5;0.75;1" calcMode="linear" dur="1000ms" repeatCount="indefinite" attributeName="d" values="M 0 0 Q -21.25284885 -0.11629805 -46.48699575 -0.25438222;M 0 0 Q -21.25284885 -0.11629805 -50.65079068 -0.06011756;M 0 0 Q -21.25284885 -0.11629805 -46.40959816 -0.25438222;M 0 0 Q -21.25284885 -0.11629805 -43.4516788 0;M 0 0 Q -21.25284885 -0.11629805 -46.48699575 -0.25438222"></animate></path></g><g><ellipse fill="#00b2d6" rx="21" ry="21" transform="translate(588.17372441 311.50864261)"></ellipse><ellipse fill="#fff" rx="16" ry="16" transform="translate(588.97461247 306.50864261)"></ellipse></g><g transform="translate(0.00001839 -0.00000614)"><ellipse fill="#001c8c" rx="8" ry="8" transform="translate(586.04661247 306.50864261)"></ellipse><ellipse fill="#fff" rx="2.95791936" ry="2.95791936" transform="translate(582.28780499 301.46656197)"></ellipse><animateTransform attributeName="transform" type="translate" from="0 0" to="0 0" calcMode="discrete" dur="1000ms" repeatCount="indefinite"></animateTransform><animateMotion keyTimes="0;0.5;0.75;1" calcMode="linear" dur="1000ms" repeatCount="indefinite" attributeName="transform" keyPoints="0;0.5;0.5;1" path="M 586.04661247 306.50864261 L 594.04661247 306.50864261 L 594.04661247 306.50864261 L 586.04661247 306.50864261" additive="sum"></animateMotion><animateTransform attributeName="transform" type="translate" from="-586.04661247 -306.50864261" to="-586.04661247 -306.50864261" calcMode="discrete" dur="1000ms" repeatCount="indefinite" additive="sum"></animateTransform></g><path fill="none" stroke="#001c8c" stroke-width="15" stroke-linecap="round" stroke-linejoin="round" d="M 10.26424384 2.71431087 Q 37.51269628 -14.99036938 59.47242581 5.63330799" transform="translate(553.9814795 284.87533462)"><animate keyTimes="0;0.5;1" calcMode="linear" dur="1000ms" repeatCount="indefinite" attributeName="d" values="M 10.26424384 2.71431087 Q 37.51269628 -14.99036938 59.47242581 5.63330799;M 10.26424384 2.71431087 Q 37.43966419 -0.69682294 59.47242581 5.63330799;M 10.26424384 2.71431087 Q 37.51269628 -14.99036938 59.47242581 5.63330799"></animate></path></g><path fill="#1af2eb" fill-rule="evenodd" d="M 0 0 Q 28.17278422 16.47248025 28.17278244 32.47248025 Q 28.17278067 48.47248025 0 32.47248025 L 0 0 Z" transform="translate(968.50119075 293.35076057)"><animate keyTimes="0;0.25;0.5;0.75;1" calcMode="linear" dur="1000ms" repeatCount="indefinite" attributeName="d" values="M 0 0 Q 28.17278422 16.47248025 28.17278244 32.47248025 Q 28.17278067 48.47248025 0 32.47248025 L 0 0 Z;M 0 0 Q 34.33035862 20.2161806 27.43667412 32.47248025 Q 20.54298962 44.72877989 0 32.47248025 L 0 0 Z;M 0 0 Q 28.17278422 16.47248025 28.17278244 32.47248025 Q 28.17278067 48.47248025 0 32.47248025 L 0 0 Z;M 0 0 Q 34.33035862 20.2161806 27.43667412 32.47248025 Q 20.54298962 44.72877989 0 32.47248025 L 0 0 Z;M 0 0 Q 28.17278422 16.47248025 28.17278244 32.47248025 Q 28.17278067 48.47248025 0 32.47248025 L 0 0 Z"></animate></path><g clip-path="url('#eaf-1121-7')"><path fill="#d6bd00" fill-rule="evenodd" d="M 0 0 Q 148.6153121 33.25991863 180 10.62562757 Q 199.51898187 76.68269373 185.76252947 128.30139209 Q 166.35895169 115.8785656 157.80651459 103.51647063 Q 157.80870412 118.5591393 154.29190373 128.30139209 Q 139.90107874 125.37527348 131.09190373 103.51647063 Q 132.00808655 119.29082519 131.09190373 128.30139209 Q 97.29637046 117.64575681 90 87.25065576 Q 73.15263007 79.28626721 60.28334897 73.20247162 C 22.27990723 46.75318063 -1.04955938 41.89562083 0 24.12632644 L 0 0 Z" transform="translate(789.50119075 445.09947484)"><animate keyTimes="0;0.25;0.5;0.75;1" calcMode="linear" dur="1000ms" repeatCount="indefinite" attributeName="d" values="M 0 0 Q 148.6153121 33.25991863 180 10.62562757 Q 199.51898187 76.68269373 185.76252947 128.30139209 Q 166.35895169 115.8785656 157.80651459 103.51647063 Q 157.80870412 118.5591393 154.29190373 128.30139209 Q 139.90107874 125.37527348 131.09190373 103.51647063 Q 132.00808655 119.29082519 131.09190373 128.30139209 Q 97.29637046 117.64575681 90 87.25065576 Q 73.15263007 79.28626721 60.28334897 73.20247162 C 22.27990723 46.75318063 -1.04955938 41.89562083 0 24.12632644 L 0 0 Z;M 0 0 Q 148.6153121 33.25991863 180 10.62562757 Q 199.51898187 76.68269373 200.04975067 127.97021976 Q 180.64617289 115.54739328 172.0937358 103.1852983 Q 172.09592532 118.22796697 168.57912493 127.97021976 Q 139.90107874 125.37527348 131.09190373 103.51647063 Q 120.98654198 112.33900137 120.07035917 121.34956826 Q 97.29637046 117.64575681 90 87.25065576 Q 79.56611139 78.17146024 60.28334897 73.20247162 C 22.27990723 46.75318063 -1.04955938 41.89562083 0 24.12632644 L 0 0 Z;M 0 0 Q 148.6153121 33.25991863 180 10.62562757 Q 199.51898187 76.68269373 182.55129015 131.53982212 Q 163.14771237 119.11699564 154.59527527 106.75490067 Q 154.5974648 121.79756934 151.08066441 131.53982212 Q 122.40261822 128.94487584 113.59344321 107.08607299 Q 105.51391842 107.83520132 104.59773561 116.84576822 Q 86.38518614 122.97520107 79.08881568 92.58010001 Q 79.56611139 78.17146024 60.28334897 73.20247162 C 22.27990723 46.75318063 -1.04955938 41.89562083 0 24.12632644 L 0 0 Z;M 0 0 Q 148.6153121 33.25991863 180 10.62562757 Q 199.51898187 76.68269373 200.04975067 127.97021976 Q 180.64617289 115.54739328 172.0937358 103.1852983 Q 172.09592532 118.22796697 168.57912493 127.97021976 Q 139.90107874 125.37527348 131.09190373 103.51647063 Q 120.98654198 112.33900137 120.07035917 121.34956826 Q 97.29637046 117.64575681 90 87.25065576 Q 79.56611139 78.17146024 60.28334897 73.20247162 C 22.27990723 46.75318063 -1.04955938 41.89562083 0 24.12632644 L 0 0 Z;M 0 0 Q 148.6153121 33.25991863 180 10.62562757 Q 199.51898187 76.68269373 185.76252947 128.30139209 Q 166.35895169 115.8785656 157.80651459 103.51647063 Q 157.80870412 118.5591393 154.29190373 128.30139209 Q 139.90107874 125.37527348 131.09190373 103.51647063 Q 132.00808655 119.29082519 131.09190373 128.30139209 Q 97.29637046 117.64575681 90 87.25065576 Q 73.15263007 79.28626721 60.28334897 73.20247162 C 22.27990723 46.75318063 -1.04955938 41.89562083 0 24.12632644 L 0 0 Z"></animate></path><path fill="#c49600" fill-rule="evenodd" d="M 74.31888469 0.00001247 Q 94.84852642 27.79833123 66.83381725 32.41130156 Q 93.7107038 49.71786912 66.16172993 55.12392427 Q 51.98603959 60.44787537 53.53569317 64.15070827 Q 70.51778303 67.60805902 73.46129027 71.45039177 Q 77.74118797 77.03719341 84.18179169 81.04053036 Q 104.38794383 111.22745814 107.73871571 89.3803402 Q 127.32107366 104.99324588 130.55917486 91.16182134 Q 141.75715407 135.24526462 165.00065192 156.4053174 L -66.63284369 76.58470141 L -66.63284369 -21.07827469 L 74.31888469 0.00001247 Z" transform="translate(831.67332172 445.09947484)"></path></g><g><g transform="translate(339.81110797 -5.22951508)" clip-path="url('#eaf-1121-8')"><path fill="#fff" fill-rule="evenodd" d="M 0 0 L 67.67916752 -34.18844545 L 23.37373311 28.25779675 Q -5.92078447 23.85835005 0 0 Z" transform="translate(600.43232458 218.20502317)"></path><path fill="#a8d6ff" fill-rule="evenodd" d="M -26.07050768 2.86494871 Q -37.56387453 57.29320333 23.29579821 24.20810376 L -19.47536207 69.67242206 L -42.24233463 58.42608621 L -49.64845824 25.5099813 L -26.07050768 2.86494871 Z" transform="translate(634.55973102 189.4778976)"></path><path fill="none" stroke="#4287c4" stroke-width="2" stroke-linecap="round" stroke-linejoin="round" d="M 0 0 Q -4.11904188 38.00115002 31.35814615 42.41837699 C 66.83533418 46.83560396 5.348718 28.53599907 15.31683476 0 C 25.28495152 -28.53599907 19.53241681 19.12690061 45.75468622 22.6231344 C 71.97695563 26.11936818 24.66155446 -1.39987323 37.01392975 -15.61063883 C 49.36630503 -29.82140443 36.4997676 -4.88454038 55.78084805 0" transform="translate(608.48922333 199.62721595)"></path></g><path fill="none" stroke="#001c8c" stroke-width="2" stroke-linecap="round" stroke-linejoin="round" d="M 2.82625788 -1.53372762 C -3.49472766 4.28878707 -4.54639668 26.3150335 23.97129822 28.7175044" transform="translate(939.24793659 212.51579485)"></path></g><path fill="none" stroke="#001c8c" stroke-width="2" stroke-linecap="round" stroke-linejoin="round" stroke-dasharray="80 20 30 10" d="M 0 0 Q 139.36779736 34.38999816 180.03399658 10.57932015" transform="translate(789.46722412 445.0994873)"></path><animateTransform attributeName="transform" type="translate" from="0 0" to="0 0" calcMode="discrete" dur="1000ms" repeatCount="indefinite"></animateTransform><animateMotion keyTimes="0;0.25;0.5;0.75;1" calcMode="linear" dur="1000ms" repeatCount="indefinite" attributeName="transform" keyPoints="0;0.25;0.5;0.75;1" path="M 880.18389949 355.49000512 L 880.18389949 335.49000512 L 880.18389949 355.49000512 L 880.18389949 335.49000512 L 880.18389949 355.49000512" additive="sum"></animateMotion><animateTransform attributeName="transform" type="translate" from="-1219.00238149 -337.17418137" to="-1219.00238149 -337.17418137" calcMode="discrete" dur="1000ms" repeatCount="indefinite" additive="sum"></animateTransform></g><g transform="translate(-339.50119075 22.83599587)"><path fill="none" stroke="#1af2eb" stroke-width="28" stroke-linecap="round" stroke-linejoin="round" d="M 0 0 Q -108.21248627 46.11132759 -108.21248627 181.93874835" transform="translate(857.50119877 360.01016235)"><animate keyTimes="0;0.25;0.5;0.75;1" calcMode="linear" dur="1000ms" repeatCount="indefinite" attributeName="d" values="M 0 0 Q -108.21248627 46.11132759 -108.21248627 181.93874835;M 0 0 Q -8.76194096 102.09679197 -17.52388118 230.67648862;M 0 0 Q 0 157.15382689 126.27573395 181.93874835;M 0 0 Q -8.76194096 102.09679197 -17.52388118 230.67648862;M 0 0 Q -108.21248627 46.11132759 -108.21248627 181.93874835"></animate><animateTransform attributeName="transform" type="translate" from="0 0" to="0 0" calcMode="discrete" dur="1000ms" repeatCount="indefinite"></animateTransform><animateMotion keyTimes="0;0.25;0.5;0.75;1" calcMode="linear" dur="1000ms" repeatCount="indefinite" attributeName="transform" keyPoints="0;0.25;0.5;0.75;1" path="M 848.73924979 360.01017724 L 848.73924979 340.01017724 L 848.73924979 360.01017724 L 848.73924979 340.01017724 L 848.73924979 360.01017724" additive="sum"></animateMotion><animateTransform keyTimes="0;0.25;0.5;0.75;1" calcMode="linear" dur="1000ms" repeatCount="indefinite" attributeName="transform" values="0;0;-21;0;0" type="rotate" additive="sum"></animateTransform><animateTransform attributeName="transform" type="translate" from="8.76194096 0" to="8.76194096 0" calcMode="discrete" dur="1000ms" repeatCount="indefinite" additive="sum"></animateTransform></path><g transform="translate(5.21276069 -11.44366885)"><path fill="none" stroke="#1af2eb" stroke-width="28" stroke-linecap="round" stroke-linejoin="round" d="M 32.34394416 28.03994856 C 35.78211772 -2.93803894 0 13.48102987 0 13.48102987 C 0 13.48102987 -25.15320433 60.51015309 40.27685498 42.33479175" transform="translate(748.84517455 527.81910372)"></path><g clip-path="url('#eaf-1121-9')"><path fill="#8c1021" fill-rule="evenodd" d="M 35.49660471 28.54328757 Q 69.58635123 62.42202733 61.10620082 75.70732897 Q 63.84534505 104.477828 72.40854425 108.63743973 Q 77.66083498 111.18876309 83.50519397 113.00658738 Q 88.54667057 113.58797776 99.81336737 125.4860097 C 105.8909017 130.33430511 100.22141219 143.29082704 114.49780061 144.80959177 Q 128.77418903 146.3283565 135.7146754 138.26901539 C 152.12454586 138.26901539 192.12069386 132.62254163 180.7009418 105.08197292 C 171.98662686 84.06600095 160.95995207 55.19189535 154.51798769 51.37930419 Q 148.90580772 48.05780992 83.50519397 28.54328757 Q 70.43775057 23.40931763 65.16139087 15.21955268 C 47.97714573 4.33571121 32.06153978 15.46008829 35.49660471 28.54328757 Z" transform="matrix(0.71106284 -0.46176961 0.60008186 0.92404503 717.4512423 556.49562431)"></path><path fill="#c14434" fill-rule="evenodd" d="M 1.07611153 4.11581221 L -47.53354529 36.9413083 Q -22.48677254 78.12136653 -4.30430714 78.46341568 C 13.87815826 78.80546484 15.81000821 106.2753965 28.04343159 106.2753965 C 40.27685498 106.2753965 44.919096 92.48156298 65.60607047 87.35082571 Q 86.29304495 82.22008845 55.13302213 46.39548215 L 1.07611153 4.11581221 Z" transform="translate(853.86573129 520.08417143)"></path><ellipse fill="#c14434" rx="5.47409037" ry="5.47409037" transform="translate(807.21162876 558.62819938)"></ellipse><ellipse fill="#c14434" rx="5.93018458" ry="5.93018458" transform="translate(818.61590402 595.49286964)"></ellipse><ellipse fill="#8c1021" rx="4.64782077" ry="4.64782077" transform="translate(810.98000561 566.44436955)"></ellipse><ellipse fill="#8c1021" rx="8.03703265" ry="8.03703265" transform="translate(842.78855544 578.19092507)"></ellipse><ellipse fill="#8c1021" rx="3.63166352" ry="3.63166352" transform="translate(828.17775212 567.73395348)"></ellipse><ellipse fill="#8c1021" rx="8.53140948" ry="8.53140948" transform="translate(855.64118486 604.02427912)"></ellipse></g><animateTransform attributeName="transform" type="translate" from="0 0" to="0 0" calcMode="discrete" dur="1000ms" repeatCount="indefinite"></animateTransform><animateMotion keyTimes="0;0.25;0.5;0.75;1" calcMode="linear" dur="1000ms" repeatCount="indefinite" attributeName="transform" keyPoints="0;0.15672794;0.50010408;0.84327206;1" path="M 749.28870448 525.50888073 L 839.97730883 552.89950236 Q 979.52674839 544.73057357 1019.28518733 468.17744833 Q 978.3024395 545.0069638 839.97730883 552.89950236 L 749.28870448 525.50888073" additive="sum"></animateMotion><animateTransform keyTimes="0;0.25;0.5;0.75;1" calcMode="linear" dur="1000ms" repeatCount="indefinite" attributeName="transform" values="0;0;-64;0;0" type="rotate" additive="sum"></animateTransform><animateTransform attributeName="transform" type="translate" from="-744.0759356 -536.95257998" to="-744.0759356 -536.95257998" calcMode="discrete" dur="1000ms" repeatCount="indefinite" additive="sum"></animateTransform></g></g></g><path fill="none" stroke="#0061ff" stroke-width="8" stroke-linecap="round" stroke-linejoin="round" stroke-dasharray="5 5 80 5 20" pathLength="100" d="M 0 0 L 949.3693033 0" transform="translate(71.1825214 1010.59970117)"><animate keyTimes="0;0.25;0.5;0.75;1" calcMode="linear" dur="1000ms" repeatCount="indefinite" attributeName="d" values="M 0 0 L 949.3693033 0;M 8.44091538 0 L 930.9244478 0;M 0 0 L 949.3693033 0;M 8.44091538 0 L 930.9244478 0;M 0 0 L 949.3693033 0"></animate></path></g></g></g></svg>